HIERARCHY
ROOT SpineBase
{
  OFFSET 0.000000 0.000000 0.000000
  CHANNELS 6 Xposition Yposition Zposition Zrotation Xrotation Yrotation
  JOINT SpineMid
  {
    OFFSET 0.000000 30.083372 -0.000000
    CHANNELS 3 Zrotation Xrotation Yrotation
    JOINT SpineShoulder
    {
      OFFSET -0.258007 22.546678 -0.502751
      CHANNELS 3 Zrotation Xrotation Yrotation
      JOINT Neck
      {
        OFFSET -0.116315 7.488457 -0.433657
        CHANNELS 3 Zrotation Xrotation Yrotation
        JOINT Head
        {
          OFFSET 1.062217 11.524312 4.305890
          CHANNELS 3 Zrotation Xrotation Yrotation
          End Site
          {
            OFFSET 0 0 0
          }
        }
      }
      JOINT ShoulderLeft
      {
        OFFSET 3.400403 -7.551494 -11.889419
        CHANNELS 3 Zrotation Xrotation Yrotation
        JOINT ElbowLeft
        {
          OFFSET -1.989335 -24.079946 -6.300264
          CHANNELS 3 Zrotation Xrotation Yrotation
          JOINT WristLeft
          {
            OFFSET -0.659108 -20.082557 -1.361543
            CHANNELS 3 Zrotation Xrotation Yrotation
            JOINT HandLeft
            {
              OFFSET -2.230123 -2.871747 0.157577
              CHANNELS 3 Zrotation Xrotation Yrotation
              JOINT HandTipLeft
              {
                OFFSET -0.427265 -4.441519 1.430701
                CHANNELS 3 Zrotation Xrotation Yrotation
                End Site
                {
                  OFFSET 0 0 0
                }
              }
              JOINT ThumbLeft
              {
                OFFSET -1.306216 1.939269 -2.751052
                CHANNELS 3 Zrotation Xrotation Yrotation
                End Site
                {
                  OFFSET 0 0 0
                }
              }
            }
          }
        }
      }
      JOINT ShoulderRight
      {
        OFFSET 0.842609 -5.816076 -10.491801
        CHANNELS 3 Zrotation Xrotation Yrotation
        JOINT ElbowRight
        {
          OFFSET 0.350057 -24.555348 -7.871330
          CHANNELS 3 Zrotation Xrotation Yrotation
          JOINT WristRight
          {
            OFFSET -5.231904 -21.830504 -1.268406
            CHANNELS 3 Zrotation Xrotation Yrotation
            JOINT HandRight
            {
              OFFSET 1.106490 -3.680469 1.193806
              CHANNELS 3 Zrotation Xrotation Yrotation
              JOINT HandTipRight
              {
                OFFSET -0.682301 -4.230311 0.589971
                CHANNELS 3 Zrotation Xrotation Yrotation
                End Site
                {
                  OFFSET 0 0 0
                }
              }
              JOINT ThumbRight
              {
                OFFSET 2.327428 2.602122 -4.031586
                CHANNELS 3 Zrotation Xrotation Yrotation
                End Site
                {
                  OFFSET 0 0 0
                }
              }
            }
          }
        }
      }
    }
  }
  JOINT HipLeft
  {
    OFFSET 3.749696 0.164196 -1.616865
    CHANNELS 3 Zrotation Xrotation Yrotation
    JOINT KneeLeft
    {
      OFFSET -10.154196 -33.089548 13.595221
      CHANNELS 3 Zrotation Xrotation Yrotation
      JOINT AnkleLeft
      {
        OFFSET 0.625683 -24.301174 0.773026
        CHANNELS 3 Zrotation Xrotation Yrotation
        JOINT FootLeft
        {
          OFFSET -8.701736 4.615222 -4.825486
          CHANNELS 3 Zrotation Xrotation Yrotation
          End Site
          {
            OFFSET 0 0 0
          }
        }
      }
    }
  }
  JOINT HipRight
  {
    OFFSET -4.368162 0.848247 -4.857895
    CHANNELS 3 Zrotation Xrotation Yrotation
    JOINT KneeRight
    {
      OFFSET 6.892996 -27.448557 1.416393
      CHANNELS 3 Zrotation Xrotation Yrotation
      JOINT AnkleRight
      {
        OFFSET 4.040878 -24.232960 2.958853
        CHANNELS 3 Zrotation Xrotation Yrotation
        JOINT FootRight
        {
          OFFSET 0.172775 -5.494018 0.224919
          CHANNELS 3 Zrotation Xrotation Yrotation
          End Site
          {
            OFFSET 0 0 0
          }
        }
      }
    }
  }
}
MOTION
Frames: 15
Frame Time: 0.033333
-2.382477 69.035883 320.107238 -0.000000 -0.000000 158.235794 -0.000000 -0.000000 -158.235794 -0.000000 0.000000 0.000000 -0.000000 0.000000 0.000000 0.000000 0.000000 0.000000 -0.000000 0.000000 0.000000 -0.000000 0.000000 0.000000 -0.000000 0.000000 0.000000 -0.000000 0.000000 0.000000 0.000000 0.000000 0.000000 0.000000 0.000000 0.000000 -0.000000 0.000000 0.000000 -0.000000 0.000000 0.000000 -0.000000 0.000000 0.000000 -0.000000 0.000000 0.000000 0.000000 0.000000 0.000000 0.000000 0.000000 0.000000 -0.000000 -0.000000 -158.235794 -0.000000 0.000000 0.000000 -0.000000 0.000000 0.000000 0.000000 0.000000 0.000000 -0.000000 -0.000000 -158.235794 -0.000000 0.000000 0.000000 -0.000000 0.000000 0.000000 0.000000 0.000000 0.000000
-3.523660 69.012746 320.426320 -0.928062 0.255425 161.210300 -0.041156 0.144350 -161.229068 0.054287 -0.035415 -0.030523 2.283045 -0.165992 -0.462049 0.000000 0.000000 0.000000 -1.173781 -0.361234 0.604111 7.343126 2.587180 -1.132854 -9.722489 -3.098547 0.376485 3.313739 -3.289759 -0.309336 0.000000 0.000000 0.000000 0.000000 0.000000 0.000000 1.724717 -0.453587 -0.221645 -0.844836 0.380962 0.278792 -0.926532 -0.772794 -0.539250 2.613816 -1.915396 1.213304 0.000000 0.000000 0.000000 0.000000 0.000000 0.000000 -1.096144 -0.956366 -161.286462 1.221241 -2.506926 0.129185 -1.751521 3.012990 2.405267 0.000000 0.000000 0.000000 -0.167480 -0.331293 -161.110698 5.156270 -0.870156 0.449571 0.472051 -12.891544 -0.140008 0.000000 0.000000 0.000000
-4.553089 69.009123 320.738624 -1.678827 0.414847 163.255304 -0.067762 0.275406 -163.289526 0.091031 -0.069577 -0.056464 3.942209 -0.029890 -0.783797 0.000000 0.000000 0.000000 -2.095078 -0.544131 1.079119 13.628390 4.476185 -2.252640 -18.875451 -5.841678 0.217539 6.622632 -6.064182 -0.844254 0.000000 0.000000 0.000000 0.000000 0.000000 0.000000 3.120676 -0.749757 -0.393676 -0.363048 1.453006 0.233298 -2.725684 -1.775370 -0.601200 4.535491 -3.813700 2.060626 0.000000 0.000000 0.000000 0.000000 0.000000 0.000000 -2.191299 -1.871366 -163.348779 2.062821 -4.451572 0.257443 -2.885714 5.711505 5.640341 0.000000 0.000000 0.000000 -0.130929 -0.506920 -163.097741 9.238841 -1.348521 0.886104 0.219981 -23.626023 0.379952 0.000000 0.000000 0.000000
-5.470762 69.025013 321.044150 -2.251601 0.477911 164.449612 -0.088382 0.391029 -164.497647 0.109996 -0.102744 -0.077697 4.974237 0.414346 -0.973349 0.000000 0.000000 0.000000 -2.757556 -0.535841 1.434224 18.568972 5.639734 -3.179674 -27.109528 -8.028384 -0.257902 9.776157 -8.140221 -1.602471 0.000000 0.000000 0.000000 0.000000 0.000000 0.000000 4.186128 -0.886781 -0.522942 -0.562697 2.198064 0.244502 -3.351836 -1.914650 -0.469602 5.677326 -5.800302 2.518599 0.000000 0.000000 0.000000 0.000000 0.000000 0.000000 -3.243849 -2.811258 -164.510615 2.508473 -5.845026 0.344500 -3.154241 8.249137 10.132321 0.000000 0.000000 0.000000 0.134998 -0.549923 -164.280625 12.240676 -1.450907 1.233039 -1.326649 -31.155749 0.629028 0.000000 0.000000 0.000000
-6.276681 69.060416 321.342897 -2.645840 0.444306 164.851381 -0.109576 0.490105 -164.912503 0.111097 -0.135185 -0.094041 5.378421 1.168212 -1.029964 0.000000 0.000000 0.000000 -3.160693 -0.327948 1.675524 21.986331 6.110420 -3.781276 -34.140033 -9.578216 -0.792249 12.645313 -9.282396 -2.563856 0.000000 0.000000 0.000000 0.000000 0.000000 0.000000 4.919759 -0.863441 -0.613638 -0.769422 2.968384 0.185554 -3.429840 -1.420233 0.039646 5.950497 -8.026847 2.531055 0.000000 0.000000 0.000000 0.000000 0.000000 0.000000 -4.221604 -3.835320 -164.837581 2.541790 -6.700212 0.356379 -2.103886 10.985462 16.736929 0.000000 0.000000 0.000000 0.642123 -0.464481 -164.721216 14.181814 -1.195970 1.450626 -4.628117 -35.406178 -0.123703 0.000000 0.000000 0.000000
-6.970845 69.115333 321.634865 -2.860993 0.313660 164.499928 -0.136122 0.571777 -164.573583 0.094363 -0.167161 -0.105245 5.155233 2.228858 -0.943646 0.000000 0.000000 0.000000 -3.307778 0.084186 1.805007 23.805827 5.941771 -3.988381 -39.764223 -10.506128 -1.156580 15.148534 -9.150668 -3.688230 0.000000 0.000000 0.000000 0.000000 0.000000 0.000000 5.320488 -0.678754 -0.667224 -0.986565 3.779404 0.056098 -2.896938 -0.113152 1.020180 5.237157 -10.699904 1.981823 0.000000 0.000000 0.000000 0.000000 0.000000 0.000000 -5.094862 -4.996145 -164.374506 2.146421 -7.028750 0.265334 1.071513 14.798182 27.106996 0.000000 0.000000 0.000000 1.391816 -0.236240 -164.461641 15.083898 -0.595745 1.530784 -9.912137 -36.305354 -2.122144 0.000000 0.000000 0.000000
-7.389578 69.110566 321.937477 -2.726311 0.079096 162.466959 -0.291704 0.606966 -162.544742 0.006044 -0.245504 -0.105228 3.696001 3.761929 -0.563826 0.000000 0.000000 0.000000 -2.300538 1.063163 1.491235 23.039137 4.479611 -3.316010 -46.987101 -10.241429 -1.436427 16.012535 -4.864662 -6.258273 0.000000 0.000000 0.000000 0.000000 0.000000 0.000000 4.994443 0.055368 -0.645258 -1.193527 5.184335 -0.403395 2.471806 4.231704 4.969236 -1.352685 -15.823583 -1.899834 0.000000 0.000000 0.000000 0.000000 0.000000 0.000000 -5.367708 -6.232641 -162.242752 1.504593 -6.561015 0.111215 12.169620 23.329079 47.199570 0.000000 0.000000 0.000000 4.030457 0.846745 -162.722034 17.262339 0.123464 1.638292 -25.723339 -26.444480 -6.437437 0.000000 0.000000 0.000000
-7.809686 69.037313 322.229177 -2.415186 -0.282095 159.709801 -0.310824 0.663299 -159.793561 -0.060137 -0.311135 -0.102263 1.609134 5.682996 0.075972 0.000000 0.000000 0.000000 -2.105338 1.682552 1.397413 20.034131 3.239773 -2.696919 -46.162770 -12.424615 0.397001 19.961693 5.422122 -8.249765 0.000000 0.000000 0.000000 0.000000 0.000000 0.000000 4.544839 0.492665 -0.598668 -1.202828 6.108997 -0.668754 3.593802 7.319103 6.655783 -5.094813 -18.599319 -4.582052 0.000000 0.000000 0.000000 0.000000 0.000000 0.000000 -5.307575 -7.536697 -159.357001 1.027389 -4.979128 -0.103921 23.891748 39.513590 74.502564 0.000000 0.000000 0.000000 5.348288 2.084540 -160.329065 16.121100 1.942701 1.529376 -30.471396 -24.018999 -7.990094 0.000000 0.000000 0.000000
-8.317374 69.234476 322.586273 -2.259605 -0.811591 158.523491 -0.360787 0.654182 -158.618733 -0.076672 -0.312778 -0.097682 -0.258720 7.607226 0.712061 0.000000 0.000000 0.000000 -1.755113 2.701492 1.249879 17.896718 1.501455 -2.044761 -50.933143 -4.013969 -2.382009 23.573026 22.520411 -3.432914 0.000000 0.000000 0.000000 0.000000 0.000000 0.000000 4.552970 0.486665 -0.690262 -3.004467 8.615094 -0.851902 5.895793 15.431335 10.568170 -10.408876 -29.261318 -9.890593 0.000000 0.000000 0.000000 0.000000 0.000000 0.000000 -5.456158 -9.409884 -158.160090 -0.106372 -4.828531 -0.273341 15.749090 49.823537 98.725131 0.000000 0.000000 0.000000 4.828475 2.099205 -159.244874 11.508522 3.966015 1.366979 -36.127235 -8.525633 -5.876395 0.000000 0.000000 0.000000
-8.863083 69.485910 322.787597 -2.207530 -1.253448 158.278488 -0.400148 0.662309 -158.385887 -0.085928 -0.291668 -0.095736 -1.806206 9.183823 1.322981 0.000000 0.000000 0.000000 -1.442379 3.777424 1.122635 15.781788 -0.503793 -1.419445 -48.406827 -1.571731 -1.816314 24.963378 23.241467 -2.156074 0.000000 0.000000 0.000000 0.000000 0.000000 0.000000 4.075545 1.135461 -0.571846 -3.327832 8.587146 -0.928520 6.482498 24.590886 13.707196 -15.879035 -34.919135 -16.534504 0.000000 0.000000 0.000000 0.000000 0.000000 0.000000 -6.942334 -10.729033 -157.409737 -2.758936 -2.862058 -1.262354 14.902567 54.335570 111.774649 0.000000 0.000000 0.000000 4.729666 1.672493 -158.961963 6.416521 5.529808 1.270556 -39.895471 -5.808398 -6.237312 0.000000 0.000000 0.000000
-9.006419 69.773485 322.887786 -1.761365 -1.614102 156.473166 -0.171419 0.718620 -156.575203 -0.144401 -0.302529 -0.092254 -2.645455 10.431831 1.616999 0.000000 0.000000 0.000000 -1.713166 4.172804 1.178515 14.863644 -1.130236 -1.306337 -43.031593 -7.141295 1.209466 18.814185 29.595028 -7.375786 0.000000 0.000000 0.000000 0.000000 0.000000 0.000000 3.482379 2.287763 -0.421648 -2.232462 8.105018 -1.278555 -0.667609 23.176848 12.366131 -7.061338 -35.329493 -11.851405 0.000000 0.000000 0.000000 0.000000 0.000000 0.000000 -7.413488 -12.419005 -155.278821 -6.209709 -2.177289 -2.103780 13.533670 59.511811 125.854200 0.000000 0.000000 0.000000 6.392822 2.576868 -157.362891 4.056028 7.619558 1.556486 -28.624105 -4.333271 -4.736430 0.000000 0.000000 0.000000
-9.006024 70.168804 322.694969 -1.332257 -1.698878 152.969382 0.063000 0.830791 -153.058380 -0.203238 -0.332287 -0.090966 -2.894696 11.332359 1.664677 0.000000 0.000000 0.000000 -1.706302 4.390414 1.152638 14.508990 -1.309769 -1.231413 -38.396783 -13.659477 4.712714 10.174317 36.464693 -12.037058 0.000000 0.000000 0.000000 0.000000 0.000000 0.000000 1.766537 4.115625 0.202315 -0.541923 7.514063 -2.116360 0.715448 25.381057 14.267562 -9.867720 -38.324427 -14.276969 0.000000 0.000000 0.000000 0.000000 0.000000 0.000000 -8.193687 -14.282775 -151.145447 -9.791605 -2.400266 -3.285441 119.075802 53.356828 57.363057 0.000000 0.000000 0.000000 9.529820 4.143456 -154.070379 4.416741 8.250863 1.701270 -16.928870 5.592043 -0.828509 0.000000 0.000000 0.000000
-8.985612 70.628197 322.267232 -1.110982 -1.473532 144.367950 0.235362 0.991967 -144.447309 -0.246232 -0.365257 -0.097705 -1.793404 10.961501 1.212011 0.000000 0.000000 0.000000 -1.509460 4.142561 1.132332 14.796763 -1.177907 -1.255737 -32.084387 -21.377694 9.927981 6.789776 40.582985 -17.401601 0.000000 0.000000 0.000000 0.000000 0.000000 0.000000 0.601636 5.463341 0.742237 1.080696 6.777351 -2.767506 -3.361759 19.719903 11.694468 0.248561 -35.926732 -6.964542 0.000000 0.000000 0.000000 0.000000 0.000000 0.000000 -8.913540 -15.935141 -141.169984 -13.963750 -1.485853 -5.065181 -61.277709 -28.582182 -164.008241 0.000000 0.000000 0.000000 11.304593 7.331837 -145.942768 5.725994 8.542519 1.829927 -1.462170 8.218857 0.503041 0.000000 0.000000 0.000000
-8.998849 71.121495 321.726228 -0.857451 -1.310592 126.711542 -0.072777 1.175808 -126.778886 -0.179496 -0.562977 -0.096319 -1.984300 11.626285 1.180784 0.000000 0.000000 0.000000 -1.974139 4.223618 1.223110 14.475331 -0.638703 -1.371494 -20.415165 -30.041865 18.438135 3.294214 49.097480 -23.860316 0.000000 0.000000 0.000000 0.000000 0.000000 0.000000 -1.759270 8.471993 1.699864 3.199036 5.479688 -3.741196 -9.347953 18.554227 10.684436 9.353626 -37.239506 -2.087193 0.000000 0.000000 0.000000 0.000000 0.000000 0.000000 -3.995130 -19.197067 -122.407110 -17.568070 -2.720695 -5.926384 -48.872143 -10.575014 -144.588422 0.000000 0.000000 0.000000 10.345669 12.405170 -128.722262 8.171631 8.289549 1.863032 -1.987635 10.537109 0.766837 0.000000 0.000000 0.000000
-9.105354 71.742871 321.151806 -0.866410 -1.168103 97.598730 -0.639218 0.989004 -97.660096 -0.193169 -0.592632 -0.097801 -1.568789 11.556723 0.982611 0.000000 0.000000 0.000000 -2.069711 4.109001 1.253343 14.931116 -0.838253 -1.391573 -10.006043 -32.192234 25.074753 2.956505 48.910861 -27.763730 0.000000 0.000000 0.000000 0.000000 0.000000 0.000000 -3.594112 10.715735 2.578807 5.038231 4.047200 -4.388406 -11.843417 22.312998 12.684574 11.246131 -42.090306 -1.865101 0.000000 0.000000 0.000000 0.000000 0.000000 0.000000 7.852213 -19.257456 -91.602610 -19.287938 -5.049381 -6.068242 -46.865948 -5.033198 -143.009545 0.000000 0.000000 0.000000 3.707453 17.565018 -98.978447 10.257614 6.654387 1.550125 -0.806339 10.511419 0.891202 0.000000 0.000000 0.000000
